<svg width="256" height="256" viewBox="0 0 67.733 67.733" version="1.1" id="svg5" xmlns="http://www.w3.org/2000/svg"><g id="layer1"><path style="fill:#b3b3b3;stroke:#000;stroke-width:0;stroke-linecap:butt;stroke-linejoin:miter;stroke-miterlimit:4;stroke-dasharray:none;stroke-opacity:1" d="M35.983 13.758c-1.058 0-2.116 4.234-2.116 5.292v32.808l.529 1.059h3.175l.529-1.059V19.05c0-1.058-1.058-5.292-2.117-5.292z" id="path3136"/><path style="fill:#fe0000;fill-opacity:1;stroke:red;stroke-width:0;stroke-linecap:butt;stroke-linejoin:miter;stroke-miterlimit:4;stroke-dasharray:none;stroke-opacity:1" d="m33.867 46.567-4.234 2.116V50.8h4.234v-4.233" id="path5025"/><path style="fill:#fe0000;fill-opacity:1;stroke:red;stroke-width:0;stroke-linecap:butt;stroke-linejoin:miter;stroke-miterlimit:4;stroke-dasharray:none;stroke-opacity:1" d="m38.1 46.567 4.233 2.116V50.8H38.1v-4.233" id="path5025-2"/><path style="fill:red;fill-opacity:1;stroke:#000;stroke-width:0;stroke-linecap:butt;stroke-linejoin:miter;stroke-miterlimit:4;stroke-dasharray:none;stroke-opacity:1" d="m33.867 26.458-3.175 3.175v1.059h3.175v-4.234" id="path7849"/><path style="fill:red;fill-opacity:1;stroke:#000;stroke-width:0;stroke-linecap:butt;stroke-linejoin:miter;stroke-miterlimit:4;stroke-dasharray:none;stroke-opacity:1" d="m38.1 26.458 3.175 3.175v1.059H38.1v-4.234" id="path7849-2"/><path style="fill:#00f;fill-opacity:1;stroke:#000;stroke-width:0;stroke-linecap:butt;stroke-linejoin:miter;stroke-miterlimit:4;stroke-dasharray:none;stroke-opacity:1" d="M34.396 52.917c-.53 2.116.529 3.704 1.587 4.762 1.059-1.058 2.117-2.646 1.588-4.762" id="path8973"/><path style="fill:#00f5ff;fill-opacity:1;stroke:#000;stroke-width:0;stroke-linecap:butt;stroke-linejoin:miter;stroke-miterlimit:4;stroke-dasharray:none;stroke-opacity:1" d="M35.454 52.917c-.529 1.058-.529 2.116.53 3.175 1.058-1.059 1.058-2.117.528-3.175" id="path8973-9"/></g></svg>